<svg width="22" height="19" viewBox="0 0 22 19" fill="none" xmlns="http://www.w3.org/2000/svg">
<path d="M11 18.7503C10.8574 18.7512 10.7161 18.7238 10.5841 18.6699C10.4521 18.616 10.3321 18.5366 10.2308 18.4362L1.81334 10.0078C0.757479 8.94093 0.165222 7.50052 0.165222 5.99949C0.165222 4.49846 0.757479 3.05805 1.81334 1.99116C2.87745 0.930043 4.3189 0.334167 5.82167 0.334167C7.32444 0.334167 8.76589 0.930043 9.83 1.99116L11 3.16116L12.17 1.99116C13.2341 0.930043 14.6756 0.334167 16.1783 0.334167C17.6811 0.334167 19.1226 0.930043 20.1867 1.99116C21.2425 3.05805 21.8348 4.49846 21.8348 5.99949C21.8348 7.50052 21.2425 8.94093 20.1867 10.0078L11.7692 18.4362C11.6679 18.5366 11.5479 18.616 11.4159 18.6699C11.2839 18.7238 11.1426 18.7512 11 18.7503ZM5.82167 2.50032C5.36307 2.49825 4.90862 2.58719 4.48463 2.76199C4.06064 2.93679 3.67556 3.19398 3.35167 3.51866C2.6974 4.17637 2.33013 5.06636 2.33013 5.99407C2.33013 6.92179 2.6974 7.81178 3.35167 8.46949L11 16.1287L18.6483 8.46949C19.3026 7.81178 19.6699 6.92179 19.6699 5.99407C19.6699 5.06636 19.3026 4.17637 18.6483 3.51866C17.9806 2.88784 17.0969 2.53639 16.1783 2.53639C15.2598 2.53639 14.376 2.88784 13.7083 3.51866L11.7692 5.46866C11.6685 5.5702 11.5486 5.65079 11.4166 5.70579C11.2846 5.76079 11.143 5.78911 11 5.78911C10.857 5.78911 10.7154 5.76079 10.5834 5.70579C10.4514 5.65079 10.3315 5.5702 10.2308 5.46866L8.29167 3.51866C7.96779 3.19398 7.5827 2.93679 7.15871 2.76199C6.73473 2.58719 6.28027 2.49825 5.82167 2.50032Z" fill="#504D4D" fill-opacity="0.5"/>
</svg>
